<svg width="112" height="112" viewBox="0 0 112 112" fill="none" xmlns="http://www.w3.org/2000/svg">
<circle cx="56" cy="56" r="56" fill="url(#paint0_linear_6002_104)"/>
<path d="M15.5156 70V46H31.5781C33.9219 46 35.8073 46.1146 37.2344 46.3438C38.6719 46.5729 39.7604 46.9583 40.5 47.5C41.2396 48.0312 41.7396 48.7552 42 49.6719C42.2604 50.5781 42.3906 51.7083 42.3906 53.0625V53.6875C42.3906 54.9792 42.2552 56.0781 41.9844 56.9844C41.724 57.8802 41.2135 58.6042 40.4531 59.1562C39.6927 59.7083 38.5938 60.1146 37.1562 60.375C35.7188 60.625 33.8281 60.75 31.4844 60.75H18.5156V70H15.5156ZM39.3906 53.0625C39.3906 52.0729 39.2969 51.2812 39.1094 50.6875C38.9219 50.0938 38.5469 49.6458 37.9844 49.3438C37.4219 49.0417 36.5833 48.8438 35.4688 48.75C34.3542 48.6458 32.8646 48.5938 31 48.5938H18.5156V58.1562H31C32.8646 58.1562 34.3542 58.099 35.4688 57.9844C36.5833 57.8594 37.4219 57.6406 37.9844 57.3281C38.5469 57.0052 38.9219 56.5521 39.1094 55.9688C39.2969 55.375 39.3906 54.6146 39.3906 53.6875V53.0625ZM46.5781 70V46H49.5781V67.5H68.5781V70H46.5781ZM98.125 63.0625C98.125 62.1354 98.0521 61.4062 97.9062 60.875C97.7604 60.3438 97.4323 59.9531 96.9219 59.7031C96.4115 59.4427 95.6198 59.276 94.5469 59.2031C93.474 59.1198 92.0052 59.0625 90.1406 59.0312L81.4531 58.9062C79.3073 58.875 77.5833 58.7448 76.2812 58.5156C74.9792 58.2865 73.9948 57.9271 73.3281 57.4375C72.6615 56.9375 72.2135 56.2708 71.9844 55.4375C71.7656 54.6042 71.6562 53.5625 71.6562 52.3125C71.6562 50.9479 71.8073 49.8229 72.1094 48.9375C72.4219 48.0521 72.9792 47.3594 73.7812 46.8594C74.5938 46.3594 75.7396 46.0104 77.2188 45.8125C78.6979 45.6042 80.6094 45.5 82.9531 45.5H89.6406C91.7656 45.5 93.5365 45.5677 94.9531 45.7031C96.3698 45.8385 97.4948 46.151 98.3281 46.6406C99.1615 47.1302 99.7552 47.8906 100.109 48.9219C100.474 49.9531 100.656 51.3698 100.656 53.1719H97.6562C97.6562 51.776 97.5208 50.724 97.25 50.0156C96.9896 49.2969 96.5521 48.8073 95.9375 48.5469C95.3333 48.2865 94.5156 48.1458 93.4844 48.125C92.4531 48.1042 91.1719 48.0938 89.6406 48.0938H83.1094C81.2448 48.0938 79.75 48.1302 78.625 48.2031C77.5104 48.276 76.6667 48.4427 76.0938 48.7031C75.5208 48.9635 75.1354 49.3802 74.9375 49.9531C74.75 50.526 74.6562 51.3125 74.6562 52.3125C74.6562 53.1562 74.724 53.8333 74.8594 54.3438C74.9948 54.8542 75.2969 55.2448 75.7656 55.5156C76.2448 55.776 76.9792 55.9583 77.9688 56.0625C78.9583 56.1562 80.3073 56.2135 82.0156 56.2344L91.3281 56.3594C93.5156 56.3906 95.2604 56.5208 96.5625 56.75C97.875 56.9688 98.8542 57.3281 99.5 57.8281C100.156 58.3281 100.589 59.0052 100.797 59.8594C101.016 60.7031 101.125 61.7708 101.125 63.0625C101.125 64.4688 100.99 65.651 100.719 66.6094C100.458 67.5573 99.9479 68.3177 99.1875 68.8906C98.4271 69.4635 97.3281 69.875 95.8906 70.125C94.4531 70.375 92.5625 70.5 90.2188 70.5H82.9062C80.7708 70.5 78.9792 70.4062 77.5312 70.2188C76.0833 70.0312 74.9271 69.6562 74.0625 69.0938C73.2083 68.5208 72.5938 67.6719 72.2188 66.5469C71.8438 65.4219 71.6562 63.9219 71.6562 62.0469H74.6562C74.6562 63.5156 74.776 64.651 75.0156 65.4531C75.2552 66.2552 75.6719 66.8333 76.2656 67.1875C76.8698 67.5312 77.7083 67.7396 78.7812 67.8125C79.8646 67.875 81.2396 67.9062 82.9062 67.9062H90.0625C91.9271 67.9062 93.401 67.849 94.4844 67.7344C95.5677 67.6094 96.3698 67.3802 96.8906 67.0469C97.4115 66.7031 97.7448 66.2135 97.8906 65.5781C98.0469 64.9427 98.125 64.1042 98.125 63.0625Z" fill="white"/>
<defs>
<linearGradient id="paint0_linear_6002_104" x1="56" y1="0" x2="56" y2="112" gradientUnits="userSpaceOnUse">
<stop offset="0.7889"/>
<stop offset="1" stop-color="#7E1EED"/>
</linearGradient>
</defs>
</svg>
